# xmcd
#
# Track frame offsets: 
#        150
#        16139
#        34170
#        54243
#        71868
#        90642
#        107947
#        125427
#        153994
#        169554
#        187810
#        210860
#        226926
#        248933
#        267570
#        287419
#        307894
#        324905
#        343711
#
# Disc length: 4784 seconds
#
# Revision: 2
# Processed by: cddbd v1.5.2PL0 Copyright (c) Steve Scherf et al.
# Submitted via: ExactAudioCopyFreeDBPlugin 1.0
#
DISCID=f912ae13
DTITLE=Татьяна Буланова - Grand Collection
DYEAR=2005
DGENRE=Pop
TTITLE0=Позвони
TTITLE1=Мой ненаглядный
TTITLE2=Ледяное сердце
TTITLE3=Я сведу тебя с ума
TTITLE4=Вот такие дела
TTITLE5=Лето-Зима
TTITLE6=Уходи к другой
TTITLE7=Не плачь
TTITLE8=Ясный мой свет
TTITLE9=Спи, мой мальчик
TTITLE10=Закрой за любовью дверь
TTITLE11=Мало не много
TTITLE12=Плачу...
TTITLE13=Мёртвые цветы
TTITLE14=Белая черёмуха
TTITLE15=Мой сон
TTITLE16=Стая
TTITLE17=Вот и солнце село
TTITLE18=Теплоход
EXTD=
EXTT0=
EXTT1=
EXTT2=
EXTT3=
EXTT4=
EXTT5=
EXTT6=
EXTT7=
EXTT8=
EXTT9=
EXTT10=
EXTT11=
EXTT12=
EXTT13=
EXTT14=
EXTT15=
EXTT16=
EXTT17=
EXTT18=
PLAYORDER=
